<svg xmlns="http://www.w3.org/2000/svg" viewBox="0 0 670 595.02"><defs><style>.cls-1{fill:#f9a429;}.cls-2{fill:#000072;}.cls-3{fill:#fff;}.cls-4{opacity:0.3;}.cls-5{fill:#03036b;}.cls-6{fill:#f02f84;}.cls-7{fill:#ef569c;}.cls-8{opacity:0.6;}.cls-9{fill:#003744;}.cls-10{fill:#015369;}.cls-11{fill:#006f8a;}</style></defs><title>svg jmdpi</title><g id="Layer_2" data-name="Layer 2"><g id="Layer_1-2" data-name="Layer 1"><path class="cls-1" d="M578.21,289.46s32.1,50.79,35,105.85a99.73,99.73,0,0,1-2.48,26.95c-14.61,65.25-95.11,157.51-335.76,165.56,0,0-203.26,8.3-229.62-119.3C39.57,440.86,42.16,406.83,56.92,365c0,0-11.57-70,2.63-167.69S101.08,51.06,126.77,49.13,194.52,78.23,235.7,141c0,0,58.7-23.91,125.92-5.72,0,0,69.57-142.74,131.49-127S573.17,236.15,578.21,289.46Z"></path><path class="cls-2" d="M267.81,588.84c4.49,0,7-.1,7.16-.1,107.91-3.61,193.07-24.29,253.09-61.47,60.67-37.58,78.37-81.8,83.52-104.81a99.72,99.72,0,0,0,2.5-27.2c-2.75-53-32.84-102.63-35-106.1l-.43-4.56c-2.89-31-8.92-95.4-21.86-155.14C540.68,55,519.33,14,493.33,7.38s-56.32,12.91-89.92,58c-23,30.86-39.73,63.77-42.28,68.87-62.51-16.64-118.2,3.08-125.07,5.68C198,82,155.08,46.09,126.71,48.22c-28.94,2.17-55,59.24-68.06,148.92C45,291,55.26,360.3,56,364.88,42.15,404.17,38.26,439.1,44.41,468.71c10.86,52.54,54.21,89.95,125.37,108.2C211.61,587.64,251.88,588.84,267.81,588.84ZM483.44,8a38.44,38.44,0,0,1,9.44,1.17c39.55,10,67.8,102.74,84,275.61l.47,5,.11.19c.32.51,32,51.23,34.82,105.4a98.51,98.51,0,0,1-2.46,26.71c-5.09,22.73-22.6,66.42-82.7,103.65-59.74,37-144.59,57.6-252.19,61.2-.52,0-51.34,1.9-104.7-11.78-49.1-12.6-110.47-41.36-124-106.79-6.09-29.33-2.2-64,11.57-103.07l.08-.22,0-.24c-.11-.7-11.37-71,2.64-167.41C75.89,91.28,104.87,51.7,126.84,50.05c27.81-2.13,70.26,33.8,108.1,91.49l.41.63.7-.28c.58-.24,59.21-23.58,125.33-5.68l.73.19.34-.68C363.1,134.38,425.41,8,483.44,8Z"></path><path class="cls-3" d="M610.69,422.26c-14.61,65.25-95.11,157.51-335.76,165.56,0,0-203.26,8.3-229.62-119.3,1.8-23.75,6.35-48.41,16.92-59.22,19.53-20,45.79-25.09,84.8-4.2,19.28,10.32,44.17,5.88,55.53-5.74,19.79-20.23,39.8-45.16,76-45.91,29.48-.6,54.58,10.52,74.94,25.3,25.84,18.75,61.83,14.66,83.33-8.91,18.93-20.78,44.93-39.36,77.32-39.39C570.8,330.38,597.41,379.91,610.69,422.26Z"></path><g class="cls-4"><path class="cls-2" d="M347.27,132.05c-38.61-7.33-73-1.79-93.1,3.27,22-4.34,54.87-7.19,90.22,2.38C344.39,137.7,345.4,135.63,347.27,132.05Z"></path></g><g class="cls-4"><path class="cls-2" d="M493.11,8.27c-13.77-3.49-27.92.87-41.6,9.74a38.56,38.56,0,0,1,16.25.49c58.11,14.71,75.11,213.79,79.84,263.81,0,0,30.11,47.66,32.8,99.31a93.05,93.05,0,0,1-2.33,25.28c-13.7,61.22-89.23,147.78-315,155.34,0,0-190.7,7.79-215.43-111.93-2.88-13.86-3.5-29.44-1.37-46.92-4.88,24.9-4.82,46.48-.95,65.13,26.36,127.6,229.62,119.3,229.62,119.3,240.65-8.05,321.15-100.31,335.76-165.56a99.73,99.73,0,0,0,2.48-26.95c-2.87-55.06-35-105.85-35-105.85C573.17,236.15,555.05,24,493.11,8.27Z"></path></g><g class="cls-4"><path class="cls-2" d="M338.52,396c-7.29,13.2-12.3,20.31-29.88,21-16,.58-16-23.25-16-23.25l-17.57,1.59-17.56,1.59s4.32,23.44-11.57,25.75c-17.41,2.52-23.62-3.56-33.15-15.24,0,0-4.24,30,23.53,34.51,26.3,4.3,42-1.57,39.36-39.91,4.26,38.2,20.79,41.15,45.89,32.19C348.07,424.69,338.52,396,338.52,396Z"></path></g><path class="cls-5" d="M247,439.53s19.53,65.49,38.11,65.08S318,433.75,318,433.75,288.9,444,276,409C276,409,277.93,439.42,247,439.53Z"></path><path class="cls-2" d="M284.94,505.53h.19c19.1-.42,33.13-68.69,33.72-71.6l.32-1.58-1.53.54c-1.15.4-28.36,9.53-40.81-24.24l-2.17-5.89.39,6.26c0,.14.73,13.15-7.36,21.8-4.8,5.14-11.77,7.76-20.69,7.79h-1.23l.35,1.18C246.93,442.48,265.94,505.53,284.94,505.53ZM316.74,435c-2.18,10.08-15.45,68.3-31.65,68.65h-.16c-16.31,0-34-54.56-36.69-63.27,8.87-.26,15.86-3.07,20.8-8.36,5.66-6.06,7.29-13.88,7.72-18.71C288.67,439.83,310.77,436.5,316.74,435Z"></path><path class="cls-6" d="M267.27,488.4s-2.88-42.16,43.81-27.57c0,0-13.14,43.45-27.2,43.7S267.27,488.4,267.27,488.4Z"></path><path class="cls-2" d="M285,510.77h.29c10.88-.24,20.12-12.89,29.09-39.8A341.94,341.94,0,0,0,324,435a6.15,6.15,0,0,0-8.09-7c-2.36.8-23.73,7.12-34.15-21.11a6.16,6.16,0,0,0-11.92,2.52c0,.08.53,11-6,17.93-3.78,4-9.45,6-16.84,6.08a6.17,6.17,0,0,0-5.88,7.92C246,457.63,263.49,510.77,285,510.77Zm25-69.36c-1.61,6.67-4.11,16.26-7.28,25.76-8.22,24.62-15.14,31.23-17.65,31.28h-.07c-6.85,0-20.14-24.2-29.75-53.48a31.22,31.22,0,0,0,17.71-9.34,31.84,31.84,0,0,0,5.82-8.9C288.06,438.6,300.23,441.8,309.91,441.41Z"></path><path class="cls-5" d="M312.23,379.33c-1.47-8.94-12.22-12.54-21.88-13.95a67.82,67.82,0,0,0-31.45,2.85c-9.25,3.12-19.17,8.59-19,17.65.2,11.78,18.81,18.3,30.09,21.17a24.8,24.8,0,0,0,16.45-1.49C297,400.71,314.14,391,312.23,379.33Z"></path><ellipse class="cls-3" cx="270.65" cy="377.81" rx="18.41" ry="3.41" transform="translate(-32.97 25.95) rotate(-5.17)"></ellipse><path class="cls-2" d="M262.61,382.47c3.93,0,7.59-.3,8.43-.38,2-.18,19.2-1.86,18.83-6h0c-.38-4.15-17.64-2.71-19.6-2.53s-19.21,1.86-18.83,6C251.65,381.93,257.37,382.47,262.61,382.47Zm25.45-6.23c-.69,1-6.74,3.14-17.18,4.08-10.74,1-17.14-.12-17.7-1,.41-.82,6.5-3,17.24-4C280.87,374.36,287.2,375.37,288.06,376.24Z"></path><path class="cls-2" d="M305.49,441.8c1.44,0,2.93-.07,4.45-.21,12.79-1.15,22.4-5.79,28.58-13.79,9.17-11.86,6.87-26.56,6.77-27.18a6.37,6.37,0,0,0-12.57,2.08c0,.06,1.45,10-4.34,17.4-3.94,5-10.53,8-19.59,8.81-7.71.69-13.6-1-18-5-9.11-8.42-9-24.56-9-24.72a6.39,6.39,0,0,0-6.27-6.46h-.11a6.36,6.36,0,0,0-6.36,6.24c0,.89-.25,21.89,13,34.23C288.23,438.91,296.09,441.8,305.49,441.8Z"></path><path class="cls-2" d="M244.75,445.74c1.69,0,3.44-.08,5.23-.24,11-1,19.43-5.32,25-12.85,10.47-14,6.61-34,6.44-34.81a6.16,6.16,0,0,0-12.08,2.42c.06.27,2.91,15.52-4.26,25.07-3.48,4.65-8.8,7.23-16.25,7.91-8.75.78-15.54-.89-20.15-5-6.8-6-7.15-15.73-7.15-15.82a6.19,6.19,0,0,0-6.3-6,6.13,6.13,0,0,0-6,6.24c0,.61.37,15,11.15,24.67C226.62,442.93,234.79,445.74,244.75,445.74Z"></path><ellipse class="cls-5" cx="179.06" cy="352.88" rx="33.36" ry="41.65" transform="translate(-31.1 17.59) rotate(-5.17)"></ellipse><path class="cls-2" d="M180.39,395.39c.83,0,1.67,0,2.51-.11,18.83-1.7,32.42-22.11,30.31-45.49s-19.16-41-38-39.3c-9.16.83-17.36,6-23.08,14.68s-8.25,19.52-7.23,30.8C147,378.31,162.58,395.39,180.39,395.39Zm-2.64-83.18c16.86,0,31.69,16.37,33.63,37.75,2,22.37-10.82,41.88-28.64,43.49s-34-15.27-36-37.64c-1-10.87,1.48-21.4,6.93-29.63s13.12-13.09,21.71-13.87C176.18,312.24,177,312.21,177.75,312.21Z"></path><ellipse class="cls-3" cx="187.09" cy="348.25" rx="11.77" ry="14.69" transform="translate(-30.64 18.29) rotate(-5.17)"></ellipse><path class="cls-2" d="M187.54,363.84c.32,0,.64,0,1,0a11.54,11.54,0,0,0,8.58-5.44,18.28,18.28,0,0,0-2-21.83,11.57,11.57,0,0,0-9.42-3.82c-7,.64-12,8.12-11.23,16.69h0A17.48,17.48,0,0,0,179.08,360,11.74,11.74,0,0,0,187.54,363.84Zm-.91-29.34a9.94,9.94,0,0,1,7.15,3.29,16.45,16.45,0,0,1,1.77,19.55,9.27,9.27,0,0,1-15.14,1.37,15.59,15.59,0,0,1-4.12-9.48c-.69-7.57,3.6-14.16,9.56-14.7Z"></path><path class="cls-2" d="M362.09,355.4c2.15-8.41,4.86-15.93,8.73-20.72a20.73,20.73,0,0,1,6.39-5.35,29.93,29.93,0,0,1,8.23-2.91,39.84,39.84,0,0,1,4.43-.68,27.94,27.94,0,0,1,4,.07,17.87,17.87,0,0,1,7.48,2.63c5.15,3.07,10.06,9.4,14.65,16.32l.16.24a2.49,2.49,0,0,0,4.53-1,34.74,34.74,0,0,0-1-14.19,34,34,0,0,0-7.24-13.54,29.81,29.81,0,0,0-14.6-8.9,35.35,35.35,0,0,0-16.57-.16,36.27,36.27,0,0,0-14.88,6.71,30.5,30.5,0,0,0-9.94,13.51,32.85,32.85,0,0,0-1.72,15.15,32,32,0,0,0,4.61,13.4,1.47,1.47,0,0,0,2.67-.42Z"></path><ellipse class="cls-3" cx="195.55" cy="261.24" rx="17.47" ry="23.1" transform="translate(-103.35 392.17) rotate(-76.84)"></ellipse><path class="cls-7" d="M111.24,246.25c18.33-18.56,40.1-37.44,73.42-65.26,7.39-6.17,5.42-13,3.84-17.66-7.28-21.55-33.92-53.16-54.26-61.55C104,89.32,96.09,194.56,95.24,238.3,95.08,246.65,105.37,252.19,111.24,246.25Z"></path><path class="cls-7" d="M515.79,223c-21.35-19.47-46.53-39.1-85-67.94-8.53-6.4-6.74-14.06-5.27-19.31C432.32,111.51,460,75,482,64.55,514.67,49,529.55,165,533,213.31,533.69,222.53,522.62,229.26,515.79,223Z"></path><ellipse class="cls-3" cx="363.64" cy="248.29" rx="23.1" ry="17.47" transform="translate(-70.79 176.49) rotate(-24.94)"></ellipse><g class="cls-8"><path class="cls-3" d="M493.11,8.27C431.19-7.42,361.62,135.32,361.62,135.32c-52-14.06-114.8.08-133.41,5.84,1.47,2.09,3.87,5.73,6.16,9.25a12,12,0,0,0,13.13,5.08c18.75-4.89,66.77-14.71,116.87-3.42a11.21,11.21,0,0,0,12.4-5.7C393,115.63,455.44,4.9,508.6,16.89A37.68,37.68,0,0,0,493.11,8.27Z"></path></g><g class="cls-8"><path class="cls-3" d="M126.77,49.13c-25.69,1.93-53,50.48-67.22,148.14S56.92,365,56.92,365c-14.76,41.87-17.35,75.9-11.61,103.56,9.33,45.14,40.8,73.26,77.57,90.77-29.41-17.71-53.17-43.72-61.07-81.93-5.74-27.66-4.35-70.68,10.41-112.55,0,0-3.18-18.81-3.6-52.22a9.44,9.44,0,0,0,1.59.18c10,.22,18.51-14.75,18.92-33.45s-7.4-34-17.44-34.25l-.26,0c1.13-12.23,2.63-25.23,4.63-39C90.26,108.44,117.58,59.9,143.28,58c5.82-.45,12.5.83,19.82,3.78C149.19,52.62,136.74,48.38,126.77,49.13Z"></path></g><path class="cls-2" d="M266.31,595c5,0,8.09-.11,8.9-.14,179.93-6,264.85-58.65,304.39-101.73,27.5-30,42.3-65.76,40.61-98.21-2.7-51.66-29.69-98.77-35.12-107.77l-.32-3.31c-2.91-31.11-9-95.84-22-155.87C545.88,50.13,523.66,8.74,494.85,1.44s-61.14,13-96.37,60.26c-19.89,26.7-34.82,54.21-40.61,65.39-55.28-13.25-103.47.06-119.37,5.43C199.33,74.34,156.58,39.81,126.23,42.1c-32.43,2.44-60,60.07-73.65,154.15-13.11,90.16-4.65,156.19-2.9,168C27.7,427.71,31.16,479.62,60,518.59,112.58,589.8,232.37,595,266.31,595ZM483.46,14.14a32.18,32.18,0,0,1,7.93,1c25.24,6.4,59.5,58.44,79.34,270.07l.47,4.95a7,7,0,0,0,1.06,3.1c.31.49,31.13,49.95,33.87,102.44.7,13.58-1.47,49.32-36.92,87.94-37.72,41.09-119.43,91.31-294.52,97.17-1.52.08-147.55,5-203.41-70.6C45.19,474.86,42.6,426.79,63.57,367.3a7,7,0,0,0,.3-3.49c-.11-.69-11.2-70.22,2.67-165.53,14-96.06,40.58-140.6,60.75-142.12,21-1.58,60.87,25.25,102.51,88.75a7,7,0,0,0,8.54,2.66h0c.57-.23,57.46-22.74,121.43-5.44a7.06,7.06,0,0,0,8.18-3.72C385.56,102.31,438.7,14.14,483.46,14.14Z"></path><path class="cls-9" d="M57.91,408.3S50.26,449.9,83,449.9s79.76-26,159.53-12.75C288.21,444.71,415.2,486,439.24,449.9s28.26-99.84,28.26-99.84Z"></path><ellipse class="cls-9" cx="253.09" cy="254.24" rx="164.87" ry="153.8" transform="translate(-45.12 453.63) rotate(-78.9)"></ellipse><path class="cls-9" d="M416.69,269.29s71.69,3.79,75.73,3.79,25.89,2.19,25.89,2.19l-5.84,17.5-92.42,4.28Z"></path><ellipse class="cls-9" cx="562.44" cy="324.24" rx="80.69" ry="102.97"></ellipse><path class="cls-10" d="M454.48,392.82s53.18-53.33,119.23-53.33V281.81H443.52Z"></path><ellipse class="cls-10" cx="589.31" cy="324.24" rx="80.69" ry="102.97"></ellipse><ellipse class="cls-9" cx="601.89" cy="327.37" rx="59.16" ry="80.93"></ellipse><rect class="cls-11" y="186.02" width="472.02" height="237.92" rx="118.96" transform="translate(472.02 609.96) rotate(-180)"></rect><path class="cls-10" d="M68.17,400.23H315.35c31.06,0,56.33-24.56,56.33-54.75v-81c0-30.19-25.27-54.76-56.33-54.76H68.17c-31.06,0-56.33,24.57-56.33,54.76v81C11.84,375.67,37.11,400.23,68.17,400.23ZM315.35,218.57c26,0,47.23,20.6,47.23,45.91v81c0,25.31-21.19,45.9-47.23,45.9H68.17c-26,0-47.23-20.59-47.23-45.9v-81c0-25.31,21.19-45.91,47.23-45.91Z"></path><path class="cls-10" d="M394.81,350.65V259.31c0-40.31-33.93-73.29-75.39-73.29h77.21c41.46,0,75.39,33,75.39,73.29v91.34c0,40.31-33.93,73.29-75.39,73.29H319.42C360.88,423.94,394.81,391,394.81,350.65Z"></path></g></g></svg>